<?xml version="1.0" standalone="no"?>
<!DOCTYPE svg PUBLIC "-//W3C//DTD SVG 20010904//EN"
 "http://www.w3.org/TR/2001/REC-SVG-20010904/DTD/svg10.dtd">
<svg version="1.0" xmlns="http://www.w3.org/2000/svg"
 width="553.000000pt" height="543.000000pt" viewBox="0 0 553.000000 543.000000"
 preserveAspectRatio="xMidYMid meet">
<g transform="translate(0.000000,543.000000) scale(0.100000,-0.100000)"
fill="#61DBFB" stroke="none">
<path d="M2660 5411 c0 -5 -21 -6 -46 -3 -29 3 -45 1 -41 -5 4 -5 -7 -8 -25
-5 -19 3 -28 1 -25 -5 4 -6 -4 -8 -20 -5 -17 3 -24 1 -19 -6 4 -6 -2 -8 -16
-4 -13 3 -19 1 -15 -5 5 -7 -1 -9 -15 -5 -16 4 -19 2 -13 -8 6 -9 4 -11 -5 -5
-14 8 -132 -44 -125 -56 3 -3 -3 -6 -13 -5 -9 0 -16 -4 -15 -10 1 -7 -5 -11
-15 -10 -9 0 -16 -4 -15 -10 1 -7 -5 -11 -15 -10 -9 0 -16 -5 -14 -12 1 -8 -2
-11 -8 -7 -14 9 -172 -145 -166 -162 3 -7 0 -15 -6 -19 -7 -5 -8 -2 -3 7 8 12
6 12 -9 0 -9 -8 -15 -20 -12 -27 3 -8 0 -13 -7 -11 -7 1 -11 -6 -11 -15 1 -10
-1 -16 -5 -13 -11 6 -52 -85 -45 -97 4 -6 2 -8 -4 -4 -13 8 -57 -119 -46 -135
5 -8 3 -9 -6 -4 -10 6 -12 0 -8 -23 2 -18 0 -28 -5 -25 -6 3 -8 -9 -5 -31 2
-20 0 -36 -4 -36 -4 0 -8 -43 -8 -96 0 -52 3 -93 8 -90 4 2 6 -14 4 -36 -3
-31 -1 -39 8 -33 9 5 11 4 6 -3 -9 -15 4 -83 14 -77 5 3 6 -5 2 -17 -3 -13 -1
-19 5 -15 7 5 9 -1 5 -15 -4 -16 -2 -19 8 -13 9 5 11 4 6 -4 -10 -16 31 -117
67 -164 16 -20 27 -43 24 -50 -3 -7 -49 -30 -103 -52 -95 -37 -98 -39 -71 -50
l27 -11 -27 -25 c-29 -27 -239 -190 -260 -202 -6 -4 -15 -2 -19 4 -5 8 -3 9 6
4 26 -16 -28 50 -84 103 -33 31 -61 50 -68 46 -6 -4 -8 -3 -5 3 8 14 -100 86
-115 77 -6 -4 -8 -3 -5 3 8 13 -68 47 -84 38 -7 -5 -10 -4 -5 3 8 13 -29 26
-45 16 -7 -4 -9 -3 -6 3 8 13 -94 36 -118 27 -14 -6 -16 -4 -10 6 6 10 -2 12
-39 8 -25 -3 -46 -2 -46 3 0 5 -22 9 -50 9 -27 0 -50 -4 -50 -9 0 -4 -23 -6
-51 -3 -32 3 -50 1 -46 -5 4 -5 -7 -8 -25 -5 -19 3 -28 1 -25 -5 4 -6 -4 -8
-20 -5 -17 3 -24 1 -19 -6 4 -6 -2 -8 -16 -4 -13 3 -19 1 -15 -5 5 -7 -1 -9
-15 -5 -16 4 -19 2 -13 -8 5 -9 4 -11 -4 -6 -16 10 -53 -3 -45 -16 4 -7 2 -8
-4 -4 -15 9 -134 -53 -126 -65 3 -5 -1 -6 -9 -3 -8 3 -20 -3 -28 -12 -12 -15
-12 -17 0 -9 9 5 12 4 7 -3 -4 -6 -13 -9 -20 -6 -18 7 -179 -154 -172 -172 3
-7 0 -16 -6 -20 -7 -5 -8 -2 -3 7 8 12 6 12 -9 0 -9 -8 -15 -20 -12 -28 3 -8
2 -12 -3 -9 -12 8 -84 -132 -77 -150 3 -8 2 -13 -3 -10 -11 7 -34 -71 -25 -86
5 -7 3 -8 -6 -3 -10 6 -12 1 -8 -18 3 -16 1 -24 -5 -20 -7 4 -8 -7 -4 -31 3
-21 2 -34 -3 -31 -5 3 -9 -48 -9 -120 0 -72 4 -123 9 -120 5 3 6 -10 3 -31 -4
-24 -3 -35 4 -31 6 4 8 -4 5 -20 -4 -19 -2 -24 8 -18 8 5 11 4 6 -3 -9 -14 4
-63 14 -57 5 3 6 -5 2 -17 -4 -16 -2 -19 8 -13 9 6 11 4 5 -4 -8 -15 34 -113
45 -106 4 3 7 -3 6 -13 0 -9 4 -16 11 -15 7 2 10 -3 8 -10 -3 -6 5 -23 16 -37
11 -14 17 -19 13 -11 -5 9 -3 12 5 7 6 -4 9 -12 5 -17 -12 -19 158 -185 177
-173 5 3 8 0 7 -8 -2 -7 5 -13 14 -13 9 0 20 -4 25 -9 5 -5 2 -6 -6 -1 -10 6
-12 4 -7 -4 5 -7 14 -10 22 -7 8 3 13 0 11 -7 -1 -7 6 -11 15 -11 10 1 16 -2
13 -6 -7 -11 113 -62 127 -54 7 5 8 3 3 -6 -6 -10 -3 -12 13 -8 12 4 20 3 17
-2 -6 -10 62 -23 77 -14 6 4 8 3 4 -4 -7 -12 88 -27 120 -19 11 3 -1 6 -26 7
-76 3 -76 1 -69 120 l5 105 2 -101 2 -101 37 -7 c106 -17 334 7 358 38 6 7 16
11 23 9 8 -3 12 8 12 38 0 55 7 47 11 -11 3 -39 1 -45 -16 -43 -11 1 -23 -3
-26 -9 -4 -6 -31 -17 -60 -24 -44 -11 -46 -13 -14 -9 22 3 49 8 60 11 20 5 20
2 17 -100 -3 -70 -1 -106 6 -106 6 0 13 9 17 19 3 11 12 24 20 31 11 9 12 7 8
-11 -4 -14 -2 -20 4 -16 7 5 9 -1 5 -15 -3 -13 -1 -19 5 -15 7 5 9 -1 5 -15
-3 -13 -1 -19 5 -15 7 5 9 -1 5 -15 -3 -13 -1 -19 5 -15 7 5 9 0 6 -13 -3 -11
0 -20 6 -20 5 0 8 -7 5 -15 -4 -8 -2 -15 4 -15 6 0 8 -10 4 -22 -3 -13 -1 -19
5 -15 7 5 9 -1 5 -15 -3 -13 -1 -19 5 -15 7 5 9 -1 5 -15 -3 -13 -1 -19 5 -15
7 5 9 -1 5 -15 -3 -13 -1 -19 5 -15 7 5 9 -1 5 -15 -3 -13 -1 -19 5 -15 7 5 9
-1 5 -15 -3 -13 -1 -19 5 -15 7 5 9 -1 5 -15 -3 -13 -1 -19 5 -15 7 5 9 -1 5
-15 -4 -15 -2 -19 7 -13 10 5 11 2 6 -14 -3 -11 -2 -21 3 -21 5 0 9 -6 9 -14
0 -8 -8 -11 -20 -8 -11 3 -18 1 -15 -4 4 -5 -5 -10 -18 -10 -25 -2 -145 -69
-180 -101 -11 -10 -13 -13 -4 -8 13 9 13 8 1 -7 -7 -10 -18 -15 -23 -12 -13 9
-140 -117 -134 -133 3 -7 0 -15 -6 -19 -7 -5 -8 -2 -3 7 8 12 6 12 -9 0 -9 -8
-15 -20 -12 -27 3 -7 0 -16 -6 -20 -7 -5 -8 -2 -4 7 4 8 0 5 -9 -6 -30 -36
-86 -157 -81 -172 4 -9 2 -11 -6 -7 -7 5 -9 0 -6 -14 4 -14 2 -20 -5 -15 -6 4
-8 -2 -5 -15 4 -14 2 -20 -5 -15 -6 4 -8 -2 -5 -15 4 -12 2 -22 -4 -22 -6 0
-7 -11 -4 -26 5 -19 3 -24 -5 -18 -9 5 -11 -3 -6 -29 3 -21 2 -37 -4 -37 -5 0
-9 -45 -9 -101 0 -60 4 -98 9 -94 6 3 7 -9 4 -30 -3 -20 -1 -35 4 -35 6 0 8
-12 5 -26 -3 -18 -1 -25 6 -20 6 4 8 -2 5 -14 -3 -11 -1 -20 5 -20 6 0 8 -10
4 -22 -3 -14 -1 -19 6 -14 8 5 10 2 6 -8 -3 -9 -1 -16 5 -16 6 0 8 -7 4 -17
-5 -12 -3 -14 7 -8 8 5 11 4 7 -2 -9 -14 12 -75 23 -68 4 3 7 -3 6 -13 0 -9 4
-16 11 -15 8 2 10 -4 6 -14 -5 -12 -3 -14 7 -8 9 5 11 4 6 -4 -16 -25 142
-199 244 -268 69 -47 170 -95 187 -89 9 4 11 2 7 -6 -5 -7 0 -9 14 -6 14 4 20
2 15 -5 -4 -6 2 -8 15 -5 14 4 20 2 16 -4 -5 -7 2 -9 19 -6 16 3 24 1 20 -5
-4 -6 5 -8 26 -4 23 5 30 3 25 -5 -5 -8 6 -9 39 -5 29 4 47 3 47 -3 0 -6 27
-10 60 -10 33 0 60 4 60 10 0 6 18 7 47 3 33 -4 44 -3 39 5 -5 8 2 10 25 5 21
-4 30 -2 26 4 -4 6 4 8 20 5 17 -3 24 -1 19 6 -4 6 2 8 16 4 13 -3 19 -1 15 5
-5 7 1 9 15 5 16 -4 19 -2 13 8 -5 9 -4 11 4 6 15 -10 73 13 65 25 -3 5 1 7 8
4 44 -17 344 231 322 266 -3 5 0 8 8 7 7 -2 13 5 13 14 0 9 4 20 9 25 5 4 6 3
2 -4 -4 -7 -5 -13 -2 -13 10 0 67 110 61 120 -3 5 -1 10 5 10 7 0 9 7 6 16 -3
8 -2 12 3 9 12 -7 24 31 15 46 -5 8 -3 9 6 4 10 -6 12 -3 8 13 -4 14 -2 20 4
16 7 -5 9 2 6 19 -3 16 -1 24 5 20 6 -4 8 4 5 20 -3 16 -1 24 5 20 6 -3 8 8 5
31 -2 20 0 36 4 36 4 0 8 23 8 50 0 59 -4 59 121 25 51 -13 95 -23 97 -20 8 8
-10 25 -20 19 -6 -4 -8 -2 -4 4 3 6 -2 17 -12 24 -16 11 17 13 209 13 211 0
229 -1 229 -17 0 -10 3 -18 8 -18 4 0 6 -19 4 -41 -3 -24 0 -39 5 -36 5 3 7
-7 5 -25 -3 -20 -1 -29 6 -24 6 3 8 -1 5 -12 -6 -25 47 -161 94 -241 70 -118
281 -316 314 -295 7 4 9 3 6 -3 -8 -13 107 -68 123 -58 9 6 11 4 5 -5 -6 -10
-3 -12 13 -8 14 4 20 2 15 -5 -4 -6 2 -8 15 -5 14 4 20 2 16 -4 -5 -7 2 -9 19
-6 15 3 24 2 22 -3 -7 -10 100 -23 114 -14 6 3 11 1 11 -4 0 -7 29 -11 75 -11
41 0 75 3 75 8 0 4 19 6 41 4 24 -3 39 0 36 5 -3 5 7 7 25 5 23 -4 29 -2 23 8
-5 8 -4 11 2 7 16 -10 74 4 66 16 -3 6 -1 7 6 3 15 -9 53 3 46 15 -3 5 1 6 9
3 17 -7 118 45 111 56 -3 4 3 7 13 6 9 0 16 4 15 10 -1 7 5 11 15 10 9 0 16 5
14 12 -1 8 2 11 8 7 14 -9 42 14 33 28 -3 6 -1 7 5 3 15 -9 124 93 118 110 -3
8 0 16 6 20 7 5 8 2 4 -7 -4 -8 2 -3 13 10 12 12 18 27 15 32 -3 5 0 8 8 7 7
-2 12 5 12 14 -1 10 3 16 10 15 6 -1 10 6 10 15 -1 10 2 16 6 13 11 -7 83 156
84 192 1 17 5 29 10 26 5 -4 7 6 4 20 -3 15 -2 24 2 22 11 -7 20 78 20 197 0
69 -4 107 -10 103 -5 -3 -7 0 -4 9 8 20 -15 128 -26 121 -4 -3 -6 5 -2 17 3
13 1 19 -5 15 -7 -5 -9 1 -5 15 4 16 2 19 -8 13 -9 -6 -11 -4 -6 4 9 15 -51
144 -64 136 -4 -3 -7 3 -6 13 0 9 -4 16 -11 15 -7 -2 -10 3 -7 11 3 7 -3 19
-12 27 -15 12 -17 12 -9 0 5 -9 4 -12 -3 -7 -6 4 -9 12 -6 19 6 18 -142 161
-157 151 -7 -4 -9 -3 -5 4 8 13 -28 35 -39 24 -3 -4 -5 0 -3 8 2 9 -4 14 -14
14 -10 -1 -15 3 -11 9 4 6 0 8 -11 4 -10 -4 -15 -3 -11 3 8 13 -101 64 -116
54 -8 -5 -9 -3 -4 6 6 10 3 12 -13 8 -12 -4 -20 -2 -17 2 3 5 0 10 -5 12 -6 2
15 43 45 92 31 49 53 91 50 94 -3 3 -17 0 -31 -6 -24 -12 -25 -11 -18 10 5 13
8 33 9 45 0 11 4 19 9 16 5 -4 6 6 2 21 -5 20 -3 26 5 21 8 -5 9 -1 4 15 -4
14 -3 20 2 17 12 -8 56 140 47 155 -5 7 -3 8 6 3 10 -6 12 -3 8 13 -4 12 -2
22 4 22 6 0 8 7 4 15 -3 8 -1 15 4 15 4 0 11 14 15 30 4 17 15 35 25 40 25 13
33 13 24 -2 -5 -8 2 -9 25 -5 23 5 30 3 25 -5 -5 -8 7 -9 44 -5 29 3 54 2 57
-4 8 -12 72 -12 80 1 3 5 25 7 50 3 27 -3 45 -2 45 4 0 5 14 7 31 5 20 -3 29
-1 26 5 -4 6 4 8 20 5 17 -3 24 -1 19 6 -4 6 2 8 16 4 13 -3 19 -1 15 5 -5 7
1 9 15 5 14 -3 19 -1 14 6 -4 8 -2 10 8 6 16 -6 154 62 196 97 14 11 19 17 11
13 -9 -4 -12 -3 -7 4 4 6 13 9 20 6 18 -7 179 154 172 172 -3 7 0 16 6 20 7 5
8 2 4 -7 -4 -8 2 -3 13 11 35 42 93 160 87 176 -4 10 -2 12 6 8 8 -5 9 -2 5 9
-4 10 -2 17 4 17 6 0 9 7 5 15 -3 8 0 15 5 15 6 0 9 9 6 20 -3 12 -1 18 5 14
7 -5 9 2 6 19 -3 16 -1 24 5 20 7 -4 8 7 4 31 -3 20 -2 34 2 32 4 -3 7 51 7
119 0 68 -3 122 -7 119 -4 -2 -5 12 -2 32 4 24 3 35 -4 31 -6 -4 -8 4 -5 20 3
17 1 24 -6 19 -6 -4 -8 2 -5 14 3 11 0 20 -6 20 -6 0 -8 7 -4 17 5 11 3 14 -6
8 -10 -6 -11 -2 -6 15 5 15 4 20 -4 16 -7 -4 -9 -1 -5 8 6 16 -52 134 -87 176
-11 14 -17 19 -13 11 4 -9 3 -12 -4 -7 -6 4 -9 13 -6 20 6 17 -155 178 -172
172 -7 -3 -16 0 -20 6 -5 7 -2 8 7 4 8 -4 3 2 -11 13 -39 32 -159 93 -170 86
-6 -3 -10 -1 -10 5 0 7 -7 9 -16 6 -10 -4 -13 -2 -8 6 5 7 0 9 -14 6 -14 -4
-20 -2 -15 5 4 6 -2 8 -15 5 -12 -4 -22 -2 -22 4 0 6 -9 8 -20 5 -11 -3 -20
-1 -20 5 0 6 -11 8 -25 6 -14 -3 -25 -1 -25 5 0 6 -19 7 -47 4 -26 -3 -57 0
-71 6 -17 8 -28 8 -42 -1 -12 -7 -38 -9 -71 -5 -38 4 -50 3 -45 -5 5 -8 -2
-10 -25 -5 -24 4 -30 3 -25 -6 6 -9 0 -10 -20 -5 -18 5 -25 3 -20 -4 4 -6 -2
-8 -14 -5 -11 3 -20 0 -20 -6 0 -5 -7 -8 -15 -5 -8 4 -15 1 -15 -5 0 -6 -7 -8
-17 -4 -11 4 -14 3 -9 -5 5 -8 2 -10 -8 -6 -9 3 -16 1 -16 -6 0 -6 -5 -8 -10
-5 -11 7 -130 -59 -166 -92 -11 -10 -13 -13 -4 -8 13 9 13 8 2 -7 -8 -9 -19
-15 -26 -12 -12 5 -115 -96 -149 -146 l-18 -25 -75 80 c-70 74 -75 78 -70 48
4 -22 1 -33 -9 -37 -8 -3 -14 0 -12 7 1 7 -6 11 -16 11 -10 -1 -16 1 -13 4 9
8 -33 34 -44 27 -6 -4 -9 -1 -8 7 2 7 -5 12 -14 12 -10 -1 -16 3 -15 10 1 6
-6 10 -16 10 -10 -1 -16 1 -13 4 9 8 -63 54 -74 47 -6 -4 -9 -1 -8 7 2 7 -5
12 -14 12 -10 -1 -16 3 -15 10 1 6 -6 10 -16 9 -10 0 -16 2 -13 5 9 8 -33 34
-44 27 -6 -4 -9 -1 -8 7 2 7 -5 12 -14 12 -15 -1 -14 3 6 30 36 47 68 115 60
128 -4 6 -3 8 3 5 12 -8 46 74 47 114 1 15 5 25 10 22 5 -3 7 6 4 20 -3 16 -1
24 5 20 6 -3 8 8 5 31 -2 20 0 36 4 36 4 0 8 47 8 105 0 58 -4 105 -8 105 -4
0 -6 16 -4 36 3 28 1 35 -8 29 -9 -5 -11 -4 -6 3 9 15 -4 83 -14 77 -5 -3 -6
5 -2 17 3 13 1 19 -5 15 -7 -5 -9 1 -5 15 4 16 2 19 -8 13 -8 -5 -11 -4 -6 3
9 15 -24 93 -37 85 -6 -3 -7 -1 -3 5 8 13 -17 56 -26 46 -3 -3 -5 3 -4 13 0
10 -4 17 -10 16 -7 -1 -11 5 -10 15 0 9 -4 16 -11 15 -7 -2 -10 3 -7 10 7 18
-154 180 -172 173 -7 -3 -16 0 -20 6 -5 7 -2 8 7 4 8 -4 3 2 -11 13 -42 34
-139 83 -152 75 -6 -4 -8 -3 -4 4 8 13 -29 26 -45 16 -7 -4 -9 -3 -6 3 8 13
-39 27 -55 17 -7 -5 -8 -2 -3 6 6 10 1 12 -18 8 -16 -3 -24 -1 -20 5 3 6 -6 8
-25 5 -18 -3 -29 0 -25 5 4 6 -12 8 -41 5 -25 -3 -46 -2 -46 3 0 5 -27 9 -60
9 -33 0 -60 -4 -60 -9z m295 -56 c279 -81 486 -289 577 -575 20 -65 23 -95 23
-230 0 -131 -4 -167 -23 -233 -69 -240 -233 -429 -464 -536 -116 -54 -208 -73
-353 -73 -142 1 -238 22 -359 80 l-79 37 29 13 c28 12 28 12 9 -4 -11 -9 -13
-14 -5 -11 8 3 42 17 75 30 33 13 68 27 78 31 11 3 15 11 11 17 -4 8 -3 9 4 5
14 -9 75 22 67 34 -3 5 0 12 6 16 8 5 9 3 4 -6 -5 -8 -3 -11 6 -8 8 3 14 10
14 16 0 5 4 14 9 19 5 5 6 3 2 -4 -11 -19 9 -16 25 4 10 11 10 14 2 9 -20 -12
-15 -1 9 20 19 15 20 16 9 2 -19 -26 2 -22 25 4 10 12 13 18 7 14 -21 -12 -15
-1 14 25 25 22 26 22 9 2 -30 -35 -3 -27 30 9 16 18 21 26 12 19 -28 -21 -21
-7 9 20 15 13 21 16 14 7 -22 -29 3 -21 32 10 17 17 25 35 22 44 -4 9 -2 19 4
23 7 3 8 0 5 -9 -4 -10 12 -5 50 15 57 31 86 68 86 109 0 28 -19 62 -30 55 -9
-6 -23 11 -26 32 -1 6 5 9 13 6 11 -4 11 -8 3 -13 -7 -4 -8 -10 -3 -13 12 -8
53 64 53 93 0 34 -62 90 -99 90 -17 0 -31 5 -31 12 0 6 -3 8 -7 4 -5 -4 1 -14
11 -22 11 -8 15 -14 9 -14 -6 0 -16 7 -23 16 -11 12 -10 18 5 32 10 10 14 11
10 3 -5 -9 -3 -12 6 -9 8 3 13 11 11 17 -1 7 2 10 8 6 13 -8 118 48 161 86 19
17 28 28 22 24 -20 -10 -15 0 9 21 19 15 20 16 9 2 -8 -11 -9 -18 -3 -18 11 0
27 19 27 32 0 3 4 10 9 15 5 5 6 2 1 -6 -5 -9 -3 -12 6 -9 8 3 14 10 14 16 0
5 4 14 9 19 5 5 6 2 1 -6 -5 -9 -3 -12 6 -9 8 3 14 10 14 16 0 5 4 14 9 19 5
5 6 2 1 -6 -5 -9 -3 -12 6 -9 8 3 14 10 14 16 0 5 4 14 9 19 5 5 6 2 1 -6 -5
-9 -3 -12 6 -9 8 3 14 10 14 16 0 5 4 14 9 19 5 5 6 2 1 -6 -5 -9 -3 -12 6 -9
8 3 14 10 14 16 0 5 4 14 9 19 5 5 6 2 1 -6 -5 -9 -3 -12 6 -9 8 3 14 10 14
15 0 6 4 15 9 20 5 5 6 2 1 -6 -5 -9 -3 -12 6 -9 8 3 13 10 12 16 -1 5 5 16
15 24 16 12 16 11 2 -6 -13 -17 -13 -19 0 -14 19 6 22 84 2 80 -6 -1 -11 4
-10 10 2 9 -10 13 -38 12 -46 -1 -179 -58 -169 -74 4 -6 -1 -7 -11 -3 -12 4
-15 3 -10 -5 5 -8 1 -10 -10 -5 -13 5 -15 3 -9 -7 5 -8 4 -11 -3 -6 -14 9
-175 -72 -167 -84 3 -5 0 -12 -6 -16 -8 -4 -9 -3 -5 4 11 18 -10 14 -25 -5
-10 -11 -10 -14 -1 -9 18 11 15 1 -5 -15 -14 -12 -16 -12 -9 0 6 9 4 12 -5 9
-8 -3 -14 -10 -14 -16 0 -5 -4 -14 -9 -19 -5 -5 -6 -2 -1 6 5 9 3 12 -6 9 -8
-3 -14 -10 -14 -16 0 -5 -4 -14 -9 -19 -5 -5 -6 -2 -1 6 5 9 3 12 -6 9 -8 -3
-13 -10 -12 -16 1 -5 -3 -9 -10 -8 -19 3 -37 16 -37 29 0 6 7 2 15 -9 14 -18
14 -17 5 9 -10 30 19 138 67 246 13 30 21 61 18 68 -2 8 -1 12 3 9 5 -3 25 30
46 72 44 91 45 128 4 151 -25 14 -29 14 -55 -5 -27 -20 -112 -131 -113 -147 0
-5 6 -5 13 -1 7 4 9 3 4 -2 -5 -5 -14 -9 -20 -9 -5 0 -12 -6 -15 -14 -3 -9 0
-11 9 -6 8 5 11 4 6 -1 -5 -5 -14 -9 -20 -9 -5 0 -12 -6 -15 -14 -3 -9 0 -11
8 -6 9 5 11 4 6 -4 -4 -6 -11 -9 -16 -6 -12 8 -53 -73 -44 -87 4 -6 3 -8 -3
-5 -5 3 -30 -36 -57 -86 -26 -51 -62 -114 -81 -141 -19 -26 -35 -53 -35 -60 0
-6 5 -4 11 4 7 10 9 11 7 2 -2 -8 -6 -12 -10 -10 -9 4 -58 -43 -58 -55 0 -6
11 0 25 13 14 13 25 21 25 19 0 -3 -17 -21 -37 -40 -20 -18 -31 -25 -23 -14 8
11 0 7 -18 -9 -18 -17 -32 -34 -32 -39 0 -6 9 -2 20 8 11 10 20 16 20 13 0 -2
-12 -15 -27 -29 -14 -13 -22 -17 -18 -9 5 10 1 8 -13 -4 -24 -21 -31 -46 -7
-26 24 20 18 5 -7 -16 -13 -12 -18 -13 -13 -4 8 13 7 13 -8 1 -18 -14 -24 -36
-7 -26 16 10 11 -1 -7 -16 -15 -12 -16 -12 -8 1 8 13 7 13 -8 1 -18 -14 -24
-36 -7 -26 16 10 11 -1 -7 -16 -11 -10 -14 -10 -9 -1 4 6 5 12 3 12 -8 0 -119
-151 -115 -156 3 -2 26 25 52 61 26 36 50 65 53 65 3 0 -7 -17 -23 -37 -15
-21 -39 -53 -52 -71 -14 -18 -35 -37 -46 -43 -20 -10 -21 -10 -2 5 32 26 6 17
-64 -20 -36 -19 -54 -32 -40 -29 23 6 24 5 5 -6 -11 -7 -21 -13 -23 -15 -2 -1
1 -13 8 -26 11 -22 10 -22 -5 -3 -8 11 -13 25 -11 32 3 7 1 15 -4 18 -13 8
-58 152 -71 230 -15 85 -6 267 17 350 62 232 244 448 457 545 134 61 237 80
392 75 81 -3 134 -11 200 -30z m1919 -1325 c300 -77 534 -314 606 -614 27
-111 27 -291 0 -402 -58 -244 -220 -446 -445 -554 -123 -60 -218 -82 -360 -84
-117 -1 -245 17 -245 35 0 5 -6 6 -14 3 -7 -3 -40 7 -72 22 -32 16 -66 27 -74
27 -11 -1 -10 2 4 13 11 8 25 14 30 14 6 0 4 -5 -4 -11 -30 -21 34 3 110 41
41 20 74 42 73 48 -1 5 23 29 54 52 31 24 53 38 49 31 -13 -20 10 -12 30 11
19 22 19 23 -1 8 -11 -8 -7 0 9 18 17 18 32 32 34 32 3 0 -3 -9 -13 -20 -10
-11 -14 -20 -9 -20 6 0 26 17 45 37 18 21 24 29 12 19 -39 -32 -25 -12 19 29
24 22 32 28 19 13 -47 -54 -5 -27 55 35 79 80 129 153 92 131 -8 -4 -10 -3 -5
2 5 5 14 9 20 9 5 0 12 6 15 14 3 9 0 11 -9 5 -12 -6 -12 -5 0 9 8 10 16 15
19 12 7 -7 42 25 42 38 0 6 -9 2 -20 -8 -11 -10 -20 -16 -20 -14 0 3 17 21 37
40 24 21 30 25 18 9 -12 -16 -6 -12 18 9 20 19 37 39 37 45 0 5 -9 1 -20 -9
-11 -10 -20 -16 -20 -13 0 2 14 17 32 34 18 16 26 20 18 9 -11 -15 -8 -14 13
4 29 26 38 53 10 30 -9 -8 5 14 32 49 58 74 72 83 20 12 -46 -63 -38 -66 10
-3 20 26 33 53 31 60 -3 7 0 12 6 10 6 -1 18 14 26 35 19 48 0 93 -38 93 -14
0 -24 -5 -23 -11 1 -7 -7 -20 -18 -30 -11 -10 -20 -14 -19 -9 6 28 -3 26 -31
-5 l-31 -35 32 42 c17 24 36 42 42 40 6 -1 13 4 16 12 3 10 0 11 -9 5 -12 -7
-12 -5 0 9 7 9 17 15 21 12 4 -3 17 11 29 31 24 40 26 48 9 38 -7 -4 -8 -3 -4
5 4 6 11 9 16 6 5 -3 16 8 25 25 21 40 10 77 -28 101 -29 17 -32 17 -52 1 -11
-9 -7 -2 9 16 30 32 46 43 30 19 -5 -7 -1 -4 9 6 37 41 10 107 -46 107 -29 0
-93 -37 -83 -48 4 -3 17 5 31 18 14 13 27 22 29 19 2 -2 -19 -22 -48 -44 -28
-21 -43 -30 -34 -19 17 19 17 22 0 54 -23 47 -65 52 -130 14 -62 -36 -133 -94
-127 -103 2 -5 -5 -17 -17 -27 -12 -11 -18 -13 -14 -6 11 18 -9 15 -25 -5 -10
-11 -10 -14 -1 -9 22 13 12 0 -30 -39 l-43 -40 34 38 c19 20 30 37 25 37 -5 0
-30 -21 -54 -47 -25 -26 -37 -41 -27 -34 27 21 20 7 -10 -20 -15 -13 -21 -16
-14 -6 7 9 9 17 3 17 -12 0 -31 -22 -29 -34 1 -4 -17 -24 -40 -43 -26 -21 -41
-29 -39 -19 3 22 37 57 52 54 7 -2 13 0 13 5 3 26 -1 36 -15 41 -18 7 -66 -3
-60 -13 2 -3 -6 -7 -17 -8 -33 -2 -157 -41 -173 -54 -8 -6 -14 -16 -14 -22 0
-6 11 0 25 13 14 13 26 22 28 19 2 -2 -12 -17 -32 -34 -19 -16 -32 -24 -27
-17 4 6 5 12 3 12 -3 0 -22 -23 -42 -51 -20 -28 -54 -70 -76 -94 -34 -37 -50
-70 -95 -202 -36 -103 -54 -170 -52 -193 3 -32 -1 -37 -40 -58 -23 -13 -42
-21 -42 -18 0 3 18 15 40 26 22 11 40 23 40 25 0 3 -22 -6 -50 -20 l-50 -25
-15 37 c-45 107 -59 185 -59 328 0 115 4 154 22 218 29 101 72 193 111 237 17
19 31 40 31 47 0 20 110 132 174 178 114 80 245 133 381 155 82 12 240 3 329
-20z m-1446 -22 c-2 -7 5 -12 14 -12 10 1 16 -3 15 -10 -1 -6 6 -10 16 -9 10
0 16 -2 13 -5 -9 -8 33 -34 44 -27 6 4 9 1 8 -7 -2 -7 5 -12 14 -12 10 1 16
-3 15 -10 -1 -6 6 -10 15 -10 10 1 15 -2 12 -7 -5 -9 11 -13 31 -9 6 1 7 -2 3
-6 -10 -10 29 -37 42 -29 6 4 9 1 8 -7 -2 -7 5 -12 14 -12 10 1 16 -3 15 -10
-1 -6 6 -10 15 -10 10 1 15 -2 12 -7 -5 -8 10 -13 29 -10 5 1 5 -4 1 -10 -5
-9 -2 -10 9 -6 11 4 14 2 11 -7 -3 -8 -20 -17 -37 -21 -30 -7 -25 -10 65 -39
53 -17 100 -34 104 -38 4 -4 1 -14 -5 -22 -7 -8 -9 -21 -5 -27 5 -8 3 -9 -6
-4 -10 6 -12 4 -7 -9 5 -11 3 -15 -5 -10 -8 5 -9 2 -5 -10 4 -9 3 -14 -2 -11
-12 7 -24 -31 -15 -46 5 -8 3 -9 -6 -4 -10 6 -12 4 -7 -9 5 -11 3 -15 -5 -10
-7 5 -9 0 -6 -14 4 -14 2 -20 -5 -15 -6 4 -8 -2 -5 -15 4 -12 2 -22 -4 -22 -6
0 -8 -9 -5 -20 3 -13 1 -18 -5 -13 -8 4 -9 -4 -5 -26 5 -23 3 -30 -5 -25 -8 5
-9 -5 -5 -34 3 -25 1 -42 -5 -42 -6 0 -9 -17 -7 -37 l4 -38 -297 0 -298 0 -30
83 c-16 46 -30 88 -30 93 0 6 -4 8 -9 5 -5 -4 -7 4 -3 16 4 16 2 19 -8 13 -9
-5 -11 -4 -6 4 4 6 -2 36 -13 67 -25 65 -25 71 -6 71 8 0 15 -4 15 -8 0 -4 7
-9 15 -13 8 -3 15 -2 15 2 0 10 -116 172 -121 169 -2 -1 1 3 8 9 7 6 9 15 5
19 -4 5 -1 5 6 1 18 -11 125 41 116 55 -4 8 -3 9 4 5 13 -8 55 17 47 27 -3 4
-2 5 1 2 12 -8 45 16 38 27 -5 7 -2 8 5 4 8 -5 42 21 94 73 44 45 82 81 84 81
2 0 2 -6 1 -12z m-2353 -23 c220 -57 401 -188 520 -379 256 -410 103 -963
-327 -1187 -44 -22 -81 -39 -83 -37 -2 1 -5 58 -7 125 -1 66 0 117 3 112 10
-17 30 70 35 154 2 45 6 156 8 247 3 165 7 192 57 368 12 43 18 84 15 100 -5
18 -4 23 3 13 6 -10 12 3 21 44 19 94 2 155 -45 155 -22 0 -23 3 -21 71 1 67
-1 73 -26 92 -28 21 -28 21 -55 1 -20 -15 -36 -50 -69 -149 -24 -72 -41 -136
-39 -143 3 -8 0 -10 -7 -6 -8 5 -9 2 -5 -10 5 -11 3 -15 -5 -10 -8 5 -9 1 -4
-12 4 -10 4 -15 0 -11 -4 4 -27 -28 -50 -70 -46 -82 -52 -99 -31 -87 8 5 8 2
-2 -9 -7 -9 -20 -17 -29 -17 -18 0 -52 28 -52 44 0 6 7 0 16 -12 8 -12 25 -22
37 -21 20 1 20 2 -3 8 -20 5 -30 22 -53 86 -16 44 -37 123 -47 175 -57 295
-96 365 -165 295 -17 -16 -25 -35 -25 -59 0 -19 -5 -38 -12 -42 -6 -4 -8 -3
-4 4 9 16 -30 25 -53 12 -39 -20 -43 -44 -35 -189 7 -105 10 -126 15 -91 4 30
5 21 3 -26 -3 -45 3 -113 16 -185 11 -63 19 -139 18 -169 -1 -30 -1 -84 2
-120 2 -42 0 -65 -7 -65 -6 0 -47 35 -92 78 -44 42 -78 77 -75 77 3 0 39 -32
80 -72 41 -39 74 -67 74 -61 0 6 -27 36 -61 67 -63 59 -130 98 -186 111 -41 8
-100 -10 -114 -36 -8 -17 -5 -25 24 -52 18 -18 54 -47 78 -65 l44 -33 -50 47
c-27 26 -36 38 -20 26 17 -11 48 -40 70 -63 22 -24 30 -35 18 -25 -32 27 -29
5 4 -25 14 -13 23 -17 19 -9 -4 8 4 2 18 -13 15 -16 24 -32 21 -37 -8 -13 44
-112 55 -105 5 3 12 0 16 -6 4 -8 3 -9 -4 -5 -18 11 -14 -10 5 -25 15 -12 16
-12 8 1 -4 8 6 2 23 -14 32 -30 41 -43 22 -31 -5 3 -10 4 -10 1 0 -6 86 -66
95 -66 3 0 3 6 -1 13 -4 7 -3 9 2 4 5 -5 9 -14 9 -19 0 -6 6 -13 14 -16 9 -3
11 0 6 8 -5 9 -4 11 4 6 6 -4 9 -11 6 -16 -3 -4 2 -13 10 -20 12 -10 15 -39
15 -141 0 -75 -4 -129 -10 -129 -5 0 -48 13 -95 29 -216 72 -407 247 -500 456
-88 198 -89 481 -2 677 118 267 361 452 652 498 79 12 245 4 320 -15z m1015
-41 c90 -92 256 -202 288 -189 8 3 10 0 6 -7 -5 -8 -2 -9 10 -5 11 5 15 3 10
-5 -5 -7 0 -9 14 -6 14 4 20 2 15 -5 -4 -6 1 -8 14 -5 19 5 20 3 11 -34 -4
-22 -5 -44 -2 -50 5 -7 2 -8 -6 -3 -10 6 -12 3 -8 -13 4 -12 3 -20 -2 -17 -10
6 -22 -54 -13 -68 4 -6 1 -7 -7 -2 -10 6 -12 3 -8 -13 4 -14 2 -20 -5 -15 -6
4 -8 -2 -5 -15 4 -12 3 -20 -2 -17 -10 6 -22 -54 -13 -68 4 -6 1 -7 -7 -2 -10
6 -12 3 -8 -13 4 -14 2 -20 -5 -15 -6 4 -8 -2 -5 -15 4 -12 3 -20 -2 -17 -10
6 -22 -54 -13 -68 4 -6 1 -7 -7 -2 -10 6 -12 3 -8 -13 4 -12 2 -20 -3 -16 -5
3 -9 -4 -9 -14 0 -11 -6 -24 -12 -29 -8 -5 -94 -7 -196 -5 l-184 4 21 22 c12
12 21 25 21 28 0 3 -43 -7 -97 -23 -114 -34 -123 -35 -123 -9 0 11 -3 20 -8
20 -4 0 -6 19 -4 41 3 24 0 39 -5 36 -5 -3 -7 7 -5 25 3 20 1 29 -6 24 -6 -4
-8 2 -5 14 3 11 1 20 -5 20 -6 0 -8 10 -4 22 3 13 1 19 -5 15 -7 -5 -9 1 -5
15 3 14 1 19 -6 14 -8 -5 -10 -1 -5 10 5 13 3 15 -7 9 -9 -5 -11 -4 -6 4 9 15
-3 53 -15 46 -5 -3 -6 2 -2 11 4 12 3 15 -5 10 -8 -5 -10 -1 -5 10 5 13 3 15
-7 9 -9 -5 -11 -4 -6 3 8 13 -17 56 -26 46 -3 -3 -5 3 -4 13 0 10 53 58 121
111 66 52 120 98 120 103 0 5 5 9 10 10 6 1 18 5 29 11 17 9 18 7 14 -21 -2
-17 -2 -31 1 -31 4 0 35 38 70 85 36 47 67 85 71 85 3 0 26 -21 50 -46z m901
-337 c3 -53 8 -100 12 -103 4 -4 13 7 20 24 l13 32 29 -85 c16 -46 32 -82 36
-79 4 2 5 -6 1 -18 -4 -16 -2 -19 8 -13 9 5 11 4 6 -3 -4 -7 4 -44 18 -82 15
-39 26 -72 26 -73 0 -6 -812 2 -818 8 -4 5 -1 5 7 0 11 -6 13 -3 9 13 -4 14
-2 20 5 15 6 -4 8 2 5 15 -4 12 -3 20 2 17 10 -6 22 54 13 68 -4 6 -1 7 7 2
10 -6 12 -3 8 13 -4 14 -2 20 5 15 6 -4 8 2 5 15 -4 12 -2 22 4 22 6 0 8 9 5
20 -3 13 -1 18 6 13 6 -4 8 2 5 15 -4 14 -2 20 5 15 6 -4 8 2 5 15 -4 12 -3
20 2 17 10 -6 22 54 13 68 -4 6 -1 7 7 2 10 -6 12 -3 8 13 -4 14 -2 20 5 15 6
-4 8 2 5 15 -4 12 -3 20 2 17 4 -3 11 11 14 29 7 34 7 35 55 33 27 -1 47 -5
45 -9 -3 -4 54 -7 126 -7 72 0 128 3 126 7 -3 4 11 6 31 4 22 -3 33 -1 30 5
-4 6 4 8 20 5 18 -3 24 -1 19 6 -5 8 0 9 16 3 21 -8 23 -16 29 -104z m542
-427 c250 0 257 -1 257 -20 0 -11 4 -20 9 -20 5 0 7 -19 4 -42 -4 -29 -3 -39
5 -34 8 5 10 -2 5 -25 -4 -22 -3 -30 5 -26 6 5 8 0 5 -13 -3 -11 -1 -20 5 -20
6 0 8 -10 4 -22 -3 -13 -1 -19 5 -15 7 5 9 -1 5 -15 -3 -14 -1 -19 6 -14 8 5
10 1 5 -10 -4 -11 -3 -15 4 -11 7 5 9 -1 5 -15 -4 -16 -2 -19 8 -13 9 5 11 4
6 -4 -7 -11 41 -108 73 -145 9 -11 11 -16 4 -13 -6 4 -17 2 -25 -5 -7 -7 -18
-13 -23 -13 -6 0 -43 -13 -83 -29 -48 -20 -68 -32 -60 -38 7 -4 20 -8 30 -8 9
0 15 -6 14 -12 -3 -23 -16 -37 -29 -32 -7 2 -22 -6 -33 -18 -19 -23 -19 -23 1
-8 18 14 19 14 7 -2 -8 -9 -19 -15 -26 -12 -7 3 -19 -3 -27 -12 -12 -15 -12
-17 0 -9 10 5 12 4 7 -4 -4 -6 -11 -9 -16 -6 -4 3 -19 -4 -31 -16 -13 -11 -18
-17 -10 -13 9 5 12 3 7 -5 -4 -6 -11 -9 -16 -6 -4 3 -19 -4 -31 -16 -13 -11
-18 -17 -10 -13 9 5 12 3 7 -5 -4 -6 -11 -9 -15 -6 -9 5 -83 -49 -82 -59 1 -3
1 -14 1 -23 0 -15 -2 -16 -10 -3 -6 9 -6 16 0 18 5 2 4 14 -2 27 -6 14 -14 22
-19 20 -4 -3 -5 5 -1 17 4 16 2 19 -8 13 -9 -5 -11 -4 -6 4 9 14 -184 572
-195 565 -4 -2 -5 6 -1 18 3 14 1 19 -6 14 -7 -4 -10 -2 -7 6 6 16 -38 141
-46 133 -3 -3 -6 2 -6 11 0 13 7 15 36 10 20 -3 152 -6 294 -6z m-335 -85 c16
-44 37 -103 47 -132 10 -29 23 -49 28 -46 6 3 7 1 3 -5 -8 -14 14 -93 25 -87
4 3 5 -5 2 -17 -4 -19 -3 -21 7 -8 10 13 11 13 6 -2 -6 -21 37 -152 47 -141 5
4 6 1 2 -7 -7 -20 59 -203 70 -193 4 5 5 2 1 -5 -4 -7 2 -36 13 -66 17 -46 18
-55 5 -70 -8 -9 -9 -11 -2 -6 7 6 16 10 22 10 5 0 1 -6 -9 -14 -11 -8 -24 -12
-30 -10 -6 3 -20 -6 -31 -18 -19 -23 -19 -23 1 -8 18 14 19 14 7 -2 -8 -9 -19
-15 -26 -12 -7 3 -19 -3 -27 -12 -12 -15 -12 -17 0 -9 10 5 12 4 7 -4 -4 -6
-11 -9 -16 -6 -4 3 -19 -4 -31 -16 -13 -11 -18 -17 -10 -13 9 5 12 3 7 -5 -4
-6 -11 -9 -16 -6 -4 3 -19 -4 -31 -16 -13 -11 -18 -17 -10 -13 9 5 12 3 7 -5
-4 -6 -11 -9 -16 -6 -4 3 -16 -3 -27 -13 -10 -9 -12 -12 -3 -7 13 9 13 8 2 -7
-8 -9 -19 -15 -26 -12 -7 3 -21 -6 -32 -18 -19 -23 -19 -23 1 -8 18 14 19 14
7 -2 -8 -9 -19 -15 -26 -12 -7 3 -21 -6 -32 -18 -19 -23 -19 -23 1 -8 18 14
19 14 7 -2 -8 -9 -19 -15 -26 -12 -7 3 -19 -3 -27 -12 -12 -15 -12 -17 0 -9
10 5 12 4 7 -4 -4 -6 -11 -9 -16 -6 -4 3 -19 -4 -31 -16 -13 -11 -18 -17 -10
-13 9 5 12 3 7 -5 -4 -6 -11 -9 -16 -6 -4 3 -19 -4 -31 -16 -13 -11 -18 -17
-10 -13 9 5 12 3 7 -5 -4 -6 -11 -9 -16 -6 -4 3 -19 -4 -31 -16 -13 -11 -18
-17 -10 -13 9 5 12 3 7 -5 -4 -6 -11 -9 -16 -6 -4 3 -16 -3 -27 -13 -10 -9
-12 -12 -3 -7 13 9 13 8 1 -7 -7 -10 -18 -15 -23 -12 -5 3 -18 -2 -28 -11 -17
-15 -20 -15 -42 -1 -14 9 -28 14 -31 11 -4 -3 -5 -2 -2 2 7 9 -86 74 -97 67
-5 -3 -7 0 -6 8 2 7 -5 12 -14 12 -10 -1 -15 2 -13 7 7 11 -30 30 -40 21 -5
-4 -6 -2 -2 3 6 11 -167 138 -189 138 -7 0 -11 3 -9 7 5 9 -184 143 -202 143
-6 0 -10 3 -8 7 2 3 -16 19 -40 35 -25 17 -45 36 -45 44 0 8 14 58 30 111 17
54 27 106 24 116 -5 16 -4 17 6 4 9 -12 11 -10 7 12 -2 15 -1 25 3 23 11 -7
22 43 14 57 -4 6 -3 8 2 5 12 -7 127 370 118 385 -5 7 -2 8 6 3 10 -6 12 -1 8
18 -3 16 -1 24 5 20 6 -4 8 2 5 15 -4 14 -2 20 5 15 6 -4 8 2 5 15 -4 12 -2
20 3 16 5 -3 9 2 9 10 0 20 19 21 457 21 l373 0 28 -80z m-898 73 c0 -2 -56
-185 -124 -407 -112 -366 -126 -405 -145 -406 -12 -1 -25 3 -28 8 -4 6 0 7 8
3 8 -4 5 -1 -5 8 -10 8 -23 13 -28 10 -5 -3 -7 0 -6 8 2 7 -5 13 -14 13 -9 0
-20 4 -25 9 -5 5 -2 6 7 2 8 -4 6 -1 -4 8 -10 8 -23 13 -28 10 -5 -3 -7 0 -6
8 2 7 -5 12 -14 12 -10 -1 -16 3 -15 10 1 6 -6 11 -15 11 -9 0 -20 4 -25 9 -5
5 -2 6 7 2 8 -4 6 -1 -4 8 -10 8 -23 13 -28 10 -5 -3 -7 0 -6 8 2 7 -5 13 -14
13 -9 0 -20 4 -25 9 -5 5 -2 6 7 2 8 -4 6 -1 -4 8 -10 8 -23 13 -28 10 -5 -3
-7 0 -6 8 2 7 -5 13 -14 13 -9 0 -20 4 -25 9 -5 5 -2 6 7 2 8 -4 6 -1 -4 8
-10 8 -23 13 -28 10 -5 -3 -7 0 -6 8 2 7 -5 12 -14 12 -10 -1 -16 3 -15 10 1
6 -7 11 -18 11 -13 1 -19 6 -16 15 2 8 4 23 5 32 0 9 5 14 10 11 5 -4 7 1 3
10 -4 10 -2 16 6 14 7 -1 11 6 11 15 -1 10 3 15 9 11 6 -4 8 0 4 11 -5 11 -3
15 5 10 8 -5 9 -2 5 10 -4 9 -3 14 2 11 12 -7 24 31 15 46 -5 8 -3 9 6 4 10
-6 12 -4 7 9 -5 11 -3 15 5 10 7 -5 9 0 6 14 -4 12 -3 20 2 17 9 -6 22 53 14
66 -3 5 0 9 7 9 7 0 9 10 7 25 -3 15 -1 22 5 18 6 -4 8 11 5 40 -3 26 -2 44 3
41 5 -3 9 11 9 31 0 30 3 35 18 31 82 -25 202 -53 202 -47 0 4 -9 16 -21 27
-21 19 -19 19 152 24 96 3 180 7 187 8 6 1 12 1 12 0z m1884 -679 c50 -33 96
-57 104 -54 8 3 10 0 6 -7 -5 -8 -2 -9 9 -5 10 4 17 2 17 -4 0 -6 7 -8 16 -5
10 4 13 2 8 -6 -5 -8 -2 -9 9 -5 10 4 17 2 17 -4 0 -6 7 -9 15 -5 20 7 20 9
-15 -106 -17 -54 -28 -102 -25 -107 3 -5 1 -11 -4 -13 -12 -4 -73 -206 -66
-218 3 -6 4 -10 1 -10 -2 0 -12 -3 -22 -7 -12 -4 -15 -3 -10 5 4 7 1 12 -8 12
-13 0 -16 -14 -16 -77 0 -43 -4 -83 -8 -90 -8 -13 -112 -13 -112 0 0 4 -54 7
-121 7 -66 0 -118 -4 -115 -8 2 -4 -11 -6 -31 -4 -22 3 -33 1 -30 -5 4 -6 -4
-8 -20 -5 -16 3 -24 1 -20 -5 4 -6 -4 -8 -20 -5 -20 4 -24 2 -18 -9 5 -9 5
-11 -2 -4 -6 6 -27 57 -47 115 -19 58 -63 181 -96 273 -61 172 -67 208 -35
213 10 1 25 10 34 20 11 11 11 14 2 9 -10 -6 -12 -4 -7 4 4 6 11 9 15 7 10 -7
36 11 36 25 0 7 9 13 19 15 10 1 26 11 35 20 15 17 15 17 -4 3 -18 -13 -19
-13 -6 3 7 10 17 16 21 13 4 -3 16 3 27 13 10 9 12 13 3 7 -13 -9 -13 -8 -2 7
8 9 19 15 26 12 7 -3 21 6 32 18 19 23 19 23 -1 8 -17 -12 -18 -12 -7 0 7 8
20 15 30 15 9 0 17 6 17 13 0 27 20 11 25 -20 l5 -33 22 29 c13 16 20 33 16
39 -3 6 -1 7 5 3 11 -7 17 6 13 27 -1 5 3 6 8 3 4 -3 20 12 35 34 l26 40 62
-66 c34 -36 102 -92 152 -125z m-2619 148 c-16 -13 -15 -14 14 -12 17 1 35 -3
38 -8 4 -6 0 -7 -8 -3 -8 4 -5 1 5 -8 10 -8 23 -13 28 -10 5 3 7 0 6 -8 -2 -7
5 -12 14 -12 10 1 16 -3 15 -10 -1 -6 7 -11 18 -11 11 0 20 -7 20 -15 0 -8 8
-14 17 -14 10 1 16 -3 15 -10 -1 -6 6 -11 15 -11 9 0 20 -4 25 -9 5 -5 2 -6
-7 -2 -8 4 -6 1 4 -8 10 -8 23 -13 28 -10 5 3 7 0 6 -8 -2 -7 5 -13 14 -13 9
0 20 -4 25 -9 5 -5 2 -6 -7 -2 -8 4 -6 1 4 -8 10 -8 23 -13 28 -10 5 3 7 0 6
-8 -2 -7 5 -12 14 -12 10 1 16 -3 15 -10 -1 -6 6 -11 15 -11 9 0 20 -4 25 -9
5 -5 2 -6 -7 -2 -8 4 -6 1 4 -8 10 -8 23 -13 29 -9 6 3 7 1 4 -4 -4 -6 6 -19
22 -30 l28 -18 -65 -213 -65 -214 -17 32 c-17 32 -17 32 -23 9 -4 -13 -7 -64
-7 -114 l0 -90 -29 0 c-16 0 -27 4 -23 9 3 5 -11 7 -32 3 -20 -3 -34 -2 -32 2
3 4 -53 8 -124 8 -71 0 -127 -4 -124 -8 3 -5 -9 -6 -26 -3 -17 4 -30 2 -30 -3
0 -6 -12 -8 -26 -5 -17 3 -25 1 -21 -5 4 -6 -3 -8 -18 -6 -15 3 -22 10 -18 19
3 8 1 14 -5 14 -6 0 -8 10 -4 22 3 13 1 19 -5 15 -7 -5 -9 1 -5 15 3 13 1 19
-5 15 -7 -5 -9 1 -5 15 3 13 1 19 -5 15 -7 -5 -9 1 -5 15 3 13 1 19 -5 15 -7
-5 -9 1 -5 15 3 13 1 19 -5 15 -7 -5 -9 1 -5 15 3 13 1 19 -5 15 -7 -5 -9 1
-5 15 3 13 1 19 -5 15 -7 -5 -9 0 -6 13 3 11 0 20 -6 20 -5 0 -8 7 -5 15 4 8
1 15 -5 15 -6 0 -8 7 -5 15 4 8 2 15 -4 15 -6 0 -8 10 -4 22 3 13 1 19 -5 15
-7 -5 -9 1 -5 15 3 13 1 19 -5 15 -7 -5 -9 1 -5 15 3 13 1 19 -5 15 -7 -5 -9
1 -5 15 4 16 2 19 -9 13 -8 -5 -11 -4 -7 0 5 5 20 10 35 11 18 2 23 0 15 -5
-11 -6 -10 -10 4 -15 9 -3 18 -5 20 -3 2 2 -21 40 -51 85 -58 87 -64 102 -39
102 8 0 12 4 9 10 -4 6 1 7 11 3 13 -5 15 -3 9 7 -5 8 -4 11 3 6 15 -9 85 21
77 34 -4 6 1 7 11 3 11 -4 15 -2 11 4 -4 6 1 10 11 9 9 0 16 4 15 10 -1 7 5
11 15 10 9 0 16 4 15 10 -1 7 5 11 15 10 9 0 17 5 17 13 0 8 8 15 18 17 23 3
58 34 52 44 -2 4 4 15 15 25 11 10 20 14 20 10 0 -4 9 0 20 10 12 10 19 24 16
31 -5 13 12 34 28 34 5 0 2 -6 -9 -13z m714 -504 c40 -29 78 -50 84 -46 5 3 8
2 4 -3 -6 -11 288 -220 304 -216 6 1 8 -1 5 -6 -2 -4 18 -23 45 -41 27 -19 49
-38 49 -43 0 -5 6 -6 13 -2 9 6 8 3 -1 -8 -8 -9 -19 -15 -26 -12 -7 3 -19 -3
-27 -12 -12 -15 -12 -17 0 -9 10 5 12 4 7 -4 -4 -6 -11 -9 -16 -6 -4 3 -19 -4
-31 -16 -13 -11 -17 -17 -9 -13 8 4 11 3 7 -1 -4 -5 -14 -10 -21 -11 -14 -2
-146 -103 -146 -112 0 -2 8 2 18 9 15 11 15 11 4 -1 -7 -8 -20 -15 -30 -15 -9
0 -16 -6 -14 -13 1 -8 -1 -11 -6 -8 -5 3 -47 -26 -94 -64 l-85 -68 -84 81
c-88 84 -229 178 -272 181 -14 0 -23 4 -20 9 2 4 -3 7 -11 7 -8 0 -21 10 -27
23 -6 12 -8 19 -3 14 7 -7 113 147 114 166 0 4 -13 1 -29 -7 -27 -14 -29 -14
-34 4 -3 13 -1 18 5 14 7 -5 9 3 4 22 -4 16 -3 24 2 17 10 -16 56 133 46 149
-4 6 -3 8 3 5 11 -7 36 80 27 95 -4 6 -3 8 3 5 5 -3 15 14 21 39 l12 45 68
-48 c37 -26 100 -71 141 -100z m1242 47 c18 -54 38 -96 43 -93 5 3 6 1 2 -6
-8 -13 14 -82 25 -75 4 2 5 -6 1 -18 -3 -13 -1 -19 5 -15 7 5 9 -1 5 -15 -3
-13 -1 -19 5 -15 7 5 9 -1 5 -15 -4 -16 -2 -19 8 -13 9 5 11 4 6 -4 -8 -13 14
-82 25 -75 4 2 5 -6 1 -18 -3 -13 -1 -19 5 -15 7 5 9 -1 6 -15 -4 -19 -3 -20
6 -8 9 12 10 8 5 -15 -4 -16 -7 -30 -8 -30 -45 -17 -104 -51 -99 -58 3 -6 1
-7 -5 -3 -14 8 -55 -18 -45 -28 4 -4 0 -4 -8 -1 -9 3 -22 -2 -30 -11 -12 -15
-12 -17 0 -9 9 5 12 4 7 -3 -4 -6 -13 -9 -20 -6 -8 3 -47 -27 -91 -70 -43 -42
-81 -76 -84 -76 -3 1 -37 39 -75 85 -38 47 -71 85 -72 85 -2 0 -4 -10 -4 -22
0 -19 2 -20 10 -8 9 13 10 13 10 0 0 -44 -19 -36 -165 68 -82 59 -148 110
-147 115 1 4 3 6 5 5 5 -4 47 23 44 30 -1 4 3 9 8 10 27 10 45 24 42 33 -1 6
7 13 17 15 10 1 26 11 35 20 15 17 15 17 -4 3 -18 -13 -19 -13 -6 3 7 10 17
16 21 13 4 -3 16 3 27 13 10 9 12 13 3 7 -13 -9 -13 -8 -2 7 8 9 19 15 26 12
7 -3 21 6 32 18 19 23 19 23 -1 8 -18 -14 -19 -14 -7 2 8 9 19 15 26 12 7 -3
21 6 32 18 19 23 19 23 -1 8 -17 -12 -18 -12 -7 0 7 8 20 15 30 15 9 0 17 6
17 13 0 6 2 11 5 10 9 -3 50 22 47 30 -1 4 3 9 8 10 27 10 45 24 42 33 -1 6 7
13 17 15 10 1 26 11 35 20 15 17 15 17 -4 3 -18 -13 -19 -13 -6 3 7 10 17 16
21 13 4 -3 16 3 27 13 10 9 12 13 3 7 -13 -9 -13 -8 -2 7 8 9 19 15 26 12 7
-3 21 6 32 18 19 23 19 23 -1 8 -18 -13 -19 -13 -8 0 6 8 22 16 36 16 23 2 28
-6 58 -96z m-716 -420 c-3 -5 -1 -10 5 -10 6 0 37 -18 67 -40 31 -22 60 -37
66 -33 6 3 7 1 3 -5 -6 -11 6 -16 27 -13 4 0 6 -3 5 -8 -4 -14 94 -81 106 -74
6 3 8 3 4 -2 -4 -4 3 -16 15 -26 21 -18 21 -18 2 -19 -11 0 -26 -4 -33 -9 -9
-5 21 -21 92 -46 58 -21 106 -41 106 -44 0 -4 -7 -17 -16 -29 -8 -12 -12 -27
-8 -34 4 -6 3 -8 -4 -4 -14 8 -66 -99 -56 -115 4 -7 3 -9 -3 -6 -12 8 -37 -69
-27 -85 4 -6 3 -8 -3 -5 -12 8 -28 -57 -18 -73 3 -6 1 -10 -6 -10 -8 0 -10
-13 -6 -40 3 -24 1 -40 -5 -40 -6 0 -9 -17 -7 -37 l4 -38 -222 0 -222 0 21 22
c12 13 19 26 16 29 -4 3 -51 -8 -106 -25 -54 -17 -102 -31 -106 -31 -3 0 -6
16 -6 36 0 19 -4 33 -9 29 -6 -3 -7 9 -4 30 3 20 1 35 -4 35 -6 0 -8 12 -5 26
3 18 1 25 -6 20 -6 -4 -8 2 -5 14 3 11 0 20 -6 20 -5 0 -8 7 -5 15 4 8 1 15
-6 15 -6 0 -9 4 -6 9 9 14 -15 72 -27 64 -6 -3 -7 -1 -3 5 7 12 -30 92 -59
127 -9 11 -13 13 -9 5 4 -8 3 -11 -1 -7 -11 10 -16 39 -6 32 5 -2 17 3 27 11
10 9 12 12 4 8 -9 -4 -12 -3 -7 2 5 5 12 8 15 7 16 -3 42 19 36 30 -4 7 -4 9
1 5 9 -9 50 18 50 32 0 6 5 10 10 11 22 2 45 21 39 31 -4 6 -3 8 3 5 5 -3 52
28 104 69 86 69 141 118 94 84 -18 -14 -19 -14 -7 2 8 9 19 15 26 12 7 -3 21
6 32 18 19 23 19 23 -1 8 -17 -12 -18 -12 -7 0 7 8 20 15 30 15 9 0 18 6 18
13 2 19 4 22 10 22 3 0 2 -4 -1 -10z m1355 -15 c30 -9 66 -18 80 -20 14 -3 71
-28 126 -55 211 -103 373 -307 434 -545 25 -98 28 -276 6 -381 -84 -397 -449
-680 -856 -661 -125 5 -236 33 -344 86 -42 20 -76 33 -76 29 0 -16 -94 55
-156 116 -59 60 -124 147 -159 215 -32 63 -67 165 -52 153 8 -7 23 -9 33 -6
17 6 17 5 -1 -9 -20 -15 -19 -17 33 -119 28 -56 76 -131 105 -164 69 -81 221
-211 192 -165 -3 5 0 13 6 17 8 4 9 3 5 -4 -9 -15 -1 -15 25 -1 11 5 17 14 14
19 -3 5 0 12 6 16 8 4 9 3 5 -4 -11 -18 0 -15 54 16 28 16 47 32 42 37 -4 4
-1 5 6 1 22 -13 228 76 217 94 -3 5 0 12 6 16 8 4 9 3 5 -4 -9 -15 -1 -15 25
-1 11 5 17 14 14 19 -4 6 1 7 11 3 11 -4 15 -3 11 4 -4 7 0 9 11 7 24 -7 127
63 187 127 l50 54 -47 -45 c-27 -24 -48 -42 -48 -39 0 2 26 29 57 59 31 30 51
47 44 37 -19 -25 2 -21 25 5 10 12 13 18 7 14 -20 -11 -15 -1 9 20 19 15 20
16 9 2 -7 -10 -9 -18 -3 -18 12 0 34 25 27 32 -3 3 3 11 12 19 16 13 17 12 4
-3 -7 -10 -9 -18 -3 -18 12 0 34 25 27 32 -3 3 3 11 12 19 16 13 17 12 4 -3
-28 -36 8 -16 40 22 83 98 89 107 89 146 0 54 -35 185 -59 225 -12 19 -21 42
-21 52 0 21 -59 114 -89 141 -15 13 -18 26 -14 51 4 27 0 39 -29 71 l-35 38
-128 7 c-116 7 -132 6 -166 -12 -21 -10 -41 -24 -45 -30 -4 -8 -3 -9 4 -5 21
13 13 0 -15 -25 -25 -22 -26 -22 -9 -1 11 12 14 22 8 22 -15 0 -35 -38 -27
-50 4 -6 1 -9 -6 -8 -6 2 -14 -3 -17 -11 -3 -8 0 -11 7 -7 19 12 12 0 -11 -20
-22 -19 -23 -19 -8 1 8 11 0 7 -18 -9 -36 -33 -45 -60 -10 -30 12 10 3 -3 -21
-31 -24 -27 -48 -49 -53 -47 -15 4 -63 -117 -92 -232 -15 -60 -37 -123 -48
-139 -12 -17 -16 -27 -9 -23 7 5 21 22 32 40 10 17 19 25 19 18 0 -7 -19 -32
-41 -55 -23 -23 -36 -34 -29 -24 7 9 8 17 2 17 -13 0 -33 -25 -26 -32 3 -3 0
-9 -7 -14 -8 -5 -10 -3 -4 6 6 10 4 11 -11 6 -10 -5 -27 -11 -37 -14 -11 -2
-14 -8 -8 -11 5 -4 -7 -7 -27 -7 -20 0 -84 -20 -142 -43 -58 -24 -110 -45
-116 -48 -20 -8 -39 116 -38 252 2 217 57 366 199 540 95 116 273 225 430 264
102 25 305 28 385 6z m-2323 -61 c306 -78 544 -326 607 -634 20 -97 15 -309
-8 -395 -38 -138 -118 -274 -223 -378 -110 -109 -210 -168 -360 -213 -76 -23
-106 -27 -228 -28 -158 0 -236 16 -373 80 l-76 35 80 82 79 82 -82 -79 c-54
-53 -79 -84 -75 -94 8 -22 -83 42 -151 107 -68 65 -126 140 -124 161 1 8 -15
47 -35 87 -54 103 -79 199 -85 328 -12 242 58 444 215 615 215 235 522 325
839 244z"/>
<path d="M1660 1280 c-106 -23 -390 -117 -408 -134 -8 -8 -17 -55 -22 -115 -7
-71 -22 -143 -50 -237 -23 -74 -39 -138 -36 -143 3 -4 -7 -19 -22 -32 l-27
-24 20 26 c27 35 -138 -137 -174 -181 l-29 -36 56 -68 c31 -37 88 -93 126
-123 l69 -54 96 93 c52 51 89 85 82 76 -8 -10 -9 -18 -3 -18 15 0 33 26 24 35
-4 5 -2 5 5 1 25 -14 171 36 189 65 5 8 3 9 -7 4 -12 -8 -12 -6 0 8 15 18 26
23 16 7 -3 -5 -3 -10 0 -10 12 0 180 133 180 142 0 5 21 25 48 45 26 19 47 33
47 30 0 -3 -20 -20 -45 -38 -25 -18 -43 -34 -41 -37 6 -6 101 68 101 78 0 5 4
12 9 17 5 5 6 2 1 -6 -5 -9 -3 -12 6 -9 8 3 14 10 14 16 0 5 4 14 9 19 5 5 6
3 2 -4 -10 -18 -5 -17 48 13 25 14 44 30 41 34 -3 5 9 18 27 30 l33 22 -30
-26 c-16 -14 -25 -26 -20 -26 21 1 53 37 65 75 7 22 28 70 47 106 30 57 33 70
23 89 -13 24 -1 39 28 40 7 0 18 11 24 25 6 14 17 25 24 25 15 0 44 38 44 57
0 23 -193 111 -287 132 -135 30 -205 33 -303 11z m295 -19 c79 -18 266 -98
279 -119 8 -13 -10 -52 -24 -52 -6 0 -10 8 -10 18 0 21 -45 46 -62 36 -7 -5
-8 -2 -3 6 6 10 4 12 -9 7 -11 -5 -15 -3 -10 5 5 8 2 9 -10 5 -11 -5 -15 -3
-10 5 5 8 2 9 -10 5 -9 -4 -15 -3 -12 1 9 16 -85 53 -118 48 -25 -5 -27 -4
-11 4 16 8 11 9 -20 5 -30 -3 -36 -2 -25 6 11 8 5 9 -25 5 -31 -4 -35 -3 -20
4 15 8 6 9 -35 6 -38 -3 -49 -2 -35 5 14 6 6 8 -30 5 -27 -2 -40 -1 -27 1 13
3 20 9 16 15 -9 14 105 3 211 -21z m-100 -162 c-14 -6 6 -8 62 -6 44 1 76 -1
70 -5 -23 -14 68 -29 124 -20 45 7 56 6 55 -4 -4 -24 -17 -29 -86 -29 -37 0
-64 3 -59 6 23 14 -74 32 -148 27 -43 -3 -67 -2 -53 2 23 7 22 8 -9 9 -47 1
-175 -40 -158 -52 7 -5 3 -6 -11 -2 -25 7 -95 -12 -87 -24 2 -5 -5 -17 -18
-27 -16 -14 -18 -14 -9 -2 9 11 10 18 2 23 -5 3 -10 1 -10 -6 0 -7 -3 -10 -6
-7 -7 8 14 48 24 46 4 -1 22 2 41 6 25 6 30 11 20 18 -10 7 -8 8 8 3 30 -8
138 25 121 38 -9 5 -6 6 7 3 11 -3 40 -2 65 3 60 12 80 12 55 0z m-15 -90
c-18 -5 -6 -7 38 -8 47 -1 67 -6 81 -20 19 -19 20 -19 38 1 18 20 18 21 -7 14
-20 -6 -22 -5 -8 4 9 5 23 7 32 4 12 -5 9 -11 -15 -31 -17 -14 -43 -49 -59
-77 -17 -28 -30 -46 -30 -40 0 5 14 32 30 58 17 26 26 45 21 42 -17 -11 -70
-104 -63 -112 4 -4 2 -4 -5 0 -13 7 -65 -13 -59 -23 4 -6 -2 -7 -106 -14 -40
-2 -66 0 -65 6 1 5 -4 12 -12 15 -9 3 -11 0 -6 -9 5 -8 4 -11 -1 -6 -5 5 -9
12 -9 15 0 13 -16 32 -27 32 -6 0 -5 -7 3 -17 11 -15 9 -14 -9 1 -12 11 -20
22 -17 24 3 3 -5 16 -17 29 l-21 23 23 25 c28 30 15 34 -16 4 -16 -15 -24 -17
-29 -8 -5 7 -4 10 2 6 6 -4 18 2 28 12 13 15 25 18 51 14 37 -6 162 26 145 36
-5 3 19 6 53 7 41 0 53 -2 36 -7z"/>
</g>
</svg>
